<svg id="Camada_2" data-name="Camada 2" xmlns="http://www.w3.org/2000/svg" viewBox="0 0 166.87 160.07"><defs><style>.cls-1{fill:#a6a5aa;}.cls-2{fill:#373333;opacity:0.17;}.cls-3{fill:#747378;}</style></defs><title>lugares onibus app</title><path class="cls-1" d="M107.37,118.48H59.6c-5.17,0-7.59,0-9.41-5.42V62.5a9.44,9.44,0,0,1,9.41-9.41h47.77a9.44,9.44,0,0,1,9.41,9.41v50.55C116.78,118.23,112.54,118.48,107.37,118.48Z"/><path class="cls-2" d="M50.19,104.45c6.91-6.91,34-20.73,66.54-1-12.3,12.3-17.92,10.16-17.92,10.16l-44-4.7Z"/><rect class="cls-3" x="45.22" y="76.84" width="9.85" height="34.51" rx="3.82" ry="3.82"/><rect class="cls-3" x="111.8" y="76.84" width="9.85" height="34.51" rx="3.82" ry="3.82"/><path class="cls-3" d="M86.78,98.82l-8.61,0c-25.13.08-28.43,8.3-28.42,12.5h0c0,4.2,2.89,7.63,6.4,7.62l54.72-.18c5,0.18,6.36-3.46,6.35-7.66h0C117.2,106.93,108.21,98.75,86.78,98.82Z"/></svg>